<svg xmlns="http://www.w3.org/2000/svg" viewBox="0 0 16 16" shape-rendering="crispEdges">
  <!-- Pixel flame - habit streak icon -->
  <rect x="7" y="0" width="2" height="2" fill="#FDBA74"/>
  <rect x="5" y="2" width="2" height="2" fill="#FB923C"/>
  <rect x="7" y="2" width="4" height="2" fill="#FDBA74"/>
  <rect x="3" y="4" width="2" height="2" fill="#EA580C"/>
  <rect x="5" y="4" width="6" height="2" fill="#FB923C"/>
  <rect x="11" y="4" width="2" height="2" fill="#FDBA74"/>
  <rect x="2" y="6" width="2" height="2" fill="#C2410C"/>
  <rect x="4" y="6" width="8" height="2" fill="#EA580C"/>
  <rect x="12" y="6" width="2" height="2" fill="#FB923C"/>
  <rect x="2" y="8" width="2" height="2" fill="#9A3412"/>
  <rect x="4" y="8" width="8" height="2" fill="#C2410C"/>
  <rect x="12" y="8" width="2" height="2" fill="#EA580C"/>
  <rect x="3" y="10" width="2" height="2" fill="#7C2D12"/>
  <rect x="5" y="10" width="6" height="2" fill="#9A3412"/>
  <rect x="11" y="10" width="2" height="2" fill="#C2410C"/>
  <rect x="4" y="12" width="8" height="2" fill="#7C2D12"/>
  <!-- inner glow -->
  <rect x="6" y="6" width="4" height="4" fill="#FED7AA"/>
  <rect x="7" y="8" width="2" height="2" fill="#FFEDD5"/>
</svg>
