<svg xmlns="http://www.w3.org/2000/svg" width="1200" height="628" viewBox="0 0 1200 628">
  <!-- Background -->
  <rect width="1200" height="628" fill="#0A0A0B"/>
  
  <!-- Gradient Orbs for Twitter Dark Mode -->
  <defs>
    <radialGradient id="tw-glow1" cx="0.2" cy="0.3" r="0.6">
      <stop offset="0%" stop-color="#14B899" stop-opacity="0.4"/>
      <stop offset="100%" stop-color="#14B899" stop-opacity="0"/>
    </radialGradient>
    <radialGradient id="tw-glow2" cx="0.8" cy="0.7" r="0.5">
      <stop offset="0%" stop-color="#FBBF24" stop-opacity="0.25"/>
      <stop offset="100%" stop-color="#FBBF24" stop-opacity="0"/>
    </radialGradient>
    <linearGradient id="tw-gradient" x1="0%" y1="0%" x2="100%" y2="0%">
      <stop offset="0%" stop-color="#14B899"/>
      <stop offset="100%" stop-color="#FBBF24"/>
    </linearGradient>
  </defs>
  
  <ellipse cx="150" cy="200" rx="400" ry="350" fill="url(#tw-glow1)"/>
  <ellipse cx="1050" cy="450" rx="350" ry="300" fill="url(#tw-glow2)"/>
  
  <!-- Content Container -->
  <g transform="translate(80, 80)">
    <!-- Logo + Brand -->
    <g>
      <rect x="0" y="0" width="80" height="80" rx="20" fill="#14B899"/>
      <path d="M40 15 L65 55 L40 45 L15 55 Z" fill="white" opacity="0.9"/>
      <path d="M40 28 L52 45 L40 40 L28 45 Z" fill="white"/>
      <text x="100" y="55" font-family="system-ui, -apple-system, sans-serif" font-size="48" font-weight="800" fill="white">RESURGO</text>
    </g>
    
    <!-- Main Headline -->
    <text x="0" y="180" font-family="system-ui, -apple-system, sans-serif" font-size="56" font-weight="700" fill="white">Transform Goals Into</text>
    <text x="0" y="250" font-family="system-ui, -apple-system, sans-serif" font-size="56" font-weight="700" fill="url(#tw-gradient)">Daily Victories</text>
    
    <!-- Value Props -->
    <g transform="translate(0, 300)">
      <circle cx="12" cy="12" r="8" fill="#14B899"/>
      <text x="35" y="18" font-family="system-ui, sans-serif" font-size="22" fill="white" opacity="0.8">AI-Powered Goal Decomposition</text>
      
      <circle cx="12" cy="52" r="8" fill="#FBBF24"/>
      <text x="35" y="58" font-family="system-ui, sans-serif" font-size="22" fill="white" opacity="0.8">Gamified Habit Tracking</text>
      
      <circle cx="12" cy="92" r="8" fill="#A78BFA"/>
      <text x="35" y="98" font-family="system-ui, sans-serif" font-size="22" fill="white" opacity="0.8">Smart Analytics & Insights</text>
    </g>
    
    <!-- CTA -->
    <g transform="translate(0, 440)">
      <rect x="0" y="0" width="220" height="50" rx="12" fill="#14B899"/>
      <text x="110" y="33" font-family="system-ui, sans-serif" font-size="18" font-weight="600" fill="white" text-anchor="middle">Start Free Today →</text>
    </g>
  </g>
  
  <!-- Dashboard Preview -->
  <g transform="translate(700, 100)">
    <rect x="0" y="0" width="420" height="420" rx="20" fill="#141416" stroke="#ffffff" stroke-opacity="0.1" stroke-width="1"/>
    
    <!-- App Header -->
    <rect x="20" y="20" width="50" height="50" rx="12" fill="#14B899" opacity="0.2"/>
    <path transform="translate(30, 30)" d="M15 5 L25 22 L15 18 L5 22 Z" fill="#14B899"/>
    <rect x="85" y="30" width="80" height="14" rx="4" fill="white" opacity="0.15"/>
    <rect x="85" y="50" width="50" height="8" rx="3" fill="white" opacity="0.08"/>
    
    <!-- Level Progress -->
    <rect x="20" y="90" width="380" height="50" rx="10" fill="white" opacity="0.03"/>
    <rect x="30" y="105" width="250" height="20" rx="6" fill="#14B899" opacity="0.4"/>
    <text x="300" y="122" font-family="system-ui, sans-serif" font-size="16" fill="#14B899" font-weight="600">Lv 15</text>
    <text x="350" y="122" font-family="system-ui, sans-serif" font-size="12" fill="white" opacity="0.4">2,450 XP</text>
    
    <!-- Today's Progress -->
    <text x="20" y="175" font-family="system-ui, sans-serif" font-size="14" fill="white" opacity="0.5">TODAY'S HABITS</text>
    
    <!-- Habit Cards Grid -->
    <rect x="20" y="195" width="180" height="80" rx="12" fill="#14B899" opacity="0.15" stroke="#14B899" stroke-opacity="0.3"/>
    <text x="35" y="225" font-family="system-ui, sans-serif" font-size="14" fill="white" opacity="0.8">Morning Workout</text>
    <text x="35" y="250" font-family="system-ui, sans-serif" font-size="12" fill="#14B899">🔥 45 day streak</text>
    <circle cx="175" cy="235" r="15" fill="#14B899"/>
    <path d="M168 235 L173 240 L182 231" stroke="white" stroke-width="2.5" fill="none"/>
    
    <rect x="220" y="195" width="180" height="80" rx="12" fill="#FBBF24" opacity="0.15" stroke="#FBBF24" stroke-opacity="0.3"/>
    <text x="235" y="225" font-family="system-ui, sans-serif" font-size="14" fill="white" opacity="0.8">Read 30 mins</text>
    <text x="235" y="250" font-family="system-ui, sans-serif" font-size="12" fill="#FBBF24">📚 21 day streak</text>
    <circle cx="375" cy="235" r="15" fill="#FBBF24"/>
    <path d="M368 235 L373 240 L382 231" stroke="white" stroke-width="2.5" fill="none"/>
    
    <rect x="20" y="290" width="180" height="80" rx="12" fill="#A78BFA" opacity="0.15" stroke="#A78BFA" stroke-opacity="0.3"/>
    <text x="35" y="320" font-family="system-ui, sans-serif" font-size="14" fill="white" opacity="0.8">Meditate</text>
    <text x="35" y="345" font-family="system-ui, sans-serif" font-size="12" fill="#A78BFA">🧘 12 day streak</text>
    <circle cx="175" cy="330" r="15" fill="#A78BFA"/>
    <path d="M168 330 L173 335 L182 326" stroke="white" stroke-width="2.5" fill="none"/>
    
    <rect x="220" y="290" width="180" height="80" rx="12" fill="white" opacity="0.05" stroke="white" stroke-opacity="0.1"/>
    <text x="235" y="320" font-family="system-ui, sans-serif" font-size="14" fill="white" opacity="0.6">Code 1 hour</text>
    <text x="235" y="345" font-family="system-ui, sans-serif" font-size="12" fill="white" opacity="0.3">⏳ Pending</text>
    <circle cx="375" cy="330" r="15" fill="white" opacity="0.1" stroke="white" stroke-opacity="0.2"/>
    
    <!-- XP Notification -->
    <rect x="250" y="385" width="150" height="30" rx="8" fill="#14B899"/>
    <text x="325" y="406" font-family="system-ui, sans-serif" font-size="14" font-weight="600" fill="white" text-anchor="middle">+50 XP Earned! 🎉</text>
  </g>
</svg>
